<svg xmlns="http://www.w3.org/2000/svg" xmlns:xlink="http://www.w3.org/1999/xlink" width="500" zoomAndPan="magnify" viewBox="0 0 375 374.999991" height="500" preserveAspectRatio="xMidYMid meet" version="1.0"><defs><g/><clipPath id="5642c5506e"><path d="M 37.5 150.695312 L 111.03125 150.695312 L 111.03125 224.226562 L 37.5 224.226562 Z M 37.5 150.695312 " clip-rule="nonzero"/></clipPath></defs><rect x="-37.5" width="450" fill="#ffffff" y="-37.499999" height="449.999989" fill-opacity="1"/><rect x="-37.5" width="450" fill="#ffffff" y="-37.499999" height="449.999989" fill-opacity="1"/><g clip-path="url(#5642c5506e)"><path fill="#004aad" d="M 58.460938 198.25 L 58.460938 150.695312 L 105.835938 150.695312 C 108.742188 150.695312 111.097656 153.050781 111.097656 155.957031 L 111.097656 165.285156 L 83.164062 165.285156 C 81.214844 165.285156 79.449219 165.609375 77.871094 166.253906 C 76.296875 166.898438 74.941406 167.816406 73.808594 169.015625 C 72.675781 170.214844 71.800781 171.648438 71.179688 173.3125 C 70.558594 174.976562 70.25 176.832031 70.25 178.871094 C 70.25 180.914062 70.582031 182.777344 71.246094 184.464844 C 71.914062 186.152344 72.832031 187.597656 74.011719 188.792969 C 75.1875 189.992188 76.574219 190.925781 78.171875 191.589844 C 79.769531 192.257812 81.523438 192.589844 83.433594 192.589844 L 86.832031 192.589844 C 87.449219 192.589844 88.050781 192.820312 88.628906 193.289062 C 89.207031 193.753906 89.496094 194.453125 89.496094 195.386719 C 89.496094 196.320312 89.238281 197.027344 88.726562 197.519531 C 88.214844 198.003906 87.585938 198.25 86.832031 198.25 Z M 81.601562 177.40625 C 81.269531 177.851562 81.101562 178.359375 81.101562 178.9375 C 81.101562 179.515625 81.300781 180.027344 81.703125 180.46875 C 82.101562 180.914062 82.636719 181.136719 83.300781 181.136719 L 86.628906 181.136719 C 88.539062 181.136719 90.324219 181.480469 91.988281 182.171875 C 93.65625 182.859375 95.105469 183.835938 96.351562 185.097656 C 97.59375 186.367188 98.570312 187.875 99.28125 189.628906 C 99.992188 191.378906 100.347656 193.324219 100.347656 195.453125 C 100.347656 197.585938 100.015625 199.527344 99.347656 201.277344 C 98.683594 203.03125 97.75 204.53125 96.550781 205.773438 C 95.351562 207.015625 93.933594 207.980469 92.289062 208.671875 C 90.648438 209.359375 88.847656 209.703125 86.894531 209.703125 L 48.140625 209.703125 L 48.140625 150.695312 L 42.757812 150.695312 C 39.855469 150.695312 37.5 153.050781 37.5 155.957031 L 37.5 219.035156 C 37.5 221.941406 39.855469 224.292969 42.757812 224.292969 L 105.835938 224.292969 C 108.742188 224.292969 111.097656 221.9375 111.097656 219.035156 L 111.097656 176.742188 L 83.300781 176.742188 C 82.5 176.742188 81.933594 176.960938 81.601562 177.40625 Z M 81.601562 177.40625 " fill-opacity="1" fill-rule="nonzero"/></g><g fill="#000000" fill-opacity="1"><g transform="translate(119.558464, 180.334784)"><g><path d="M 1.59375 -19.40625 C 1.71875 -19.476562 2.910156 -19.515625 5.171875 -19.515625 C 7.460938 -19.515625 8.671875 -19.46875 8.796875 -19.375 C 9.085938 -19.175781 9.222656 -18.875 9.203125 -18.46875 C 9.203125 -18.269531 9.082031 -18.101562 8.84375 -17.96875 C 8.613281 -17.84375 8.414062 -17.753906 8.25 -17.703125 C 7.71875 -17.554688 7.40625 -17.300781 7.3125 -16.9375 C 7.289062 -16.84375 7.269531 -16.191406 7.25 -14.984375 C 7.238281 -13.773438 7.234375 -11.988281 7.234375 -9.625 C 7.234375 -4.96875 7.257812 -2.546875 7.3125 -2.359375 C 7.332031 -2.210938 7.414062 -2.085938 7.5625 -1.984375 C 7.613281 -1.960938 7.679688 -1.9375 7.765625 -1.90625 C 7.847656 -1.882812 7.953125 -1.875 8.078125 -1.875 C 8.191406 -1.851562 8.441406 -1.84375 8.828125 -1.84375 C 9.210938 -1.84375 9.734375 -1.84375 10.390625 -1.84375 C 12.128906 -1.84375 13.117188 -1.878906 13.359375 -1.953125 C 13.691406 -2.046875 13.984375 -2.222656 14.234375 -2.484375 C 14.492188 -2.753906 14.769531 -3.179688 15.0625 -3.765625 C 15.175781 -3.984375 15.304688 -4.203125 15.453125 -4.421875 C 15.597656 -4.640625 15.804688 -4.75 16.078125 -4.75 C 16.410156 -4.75 16.660156 -4.601562 16.828125 -4.3125 C 16.929688 -4.144531 16.96875 -3.503906 16.9375 -2.390625 C 16.9375 -1.929688 16.929688 -1.5625 16.921875 -1.28125 C 16.910156 -1.007812 16.894531 -0.8125 16.875 -0.6875 C 16.84375 -0.488281 16.722656 -0.304688 16.515625 -0.140625 L 16.296875 0 L 9.234375 0 C 6.867188 0.0195312 5.082031 0.0234375 3.875 0.015625 C 2.664062 0.00390625 2.023438 -0.0078125 1.953125 -0.03125 C 1.785156 -0.0625 1.640625 -0.160156 1.515625 -0.328125 C 1.367188 -0.472656 1.296875 -0.65625 1.296875 -0.875 C 1.296875 -1.082031 1.34375 -1.257812 1.4375 -1.40625 C 1.539062 -1.550781 1.882812 -1.757812 2.46875 -2.03125 C 2.488281 -2.050781 2.507812 -2.0625 2.53125 -2.0625 C 2.5625 -2.0625 2.585938 -2.070312 2.609375 -2.09375 C 2.847656 -2.21875 2.976562 -2.507812 3 -2.96875 C 3.03125 -3.207031 3.050781 -3.75 3.0625 -4.59375 C 3.070312 -5.4375 3.066406 -6.582031 3.046875 -8.03125 L 3.046875 -17.09375 L 2.9375 -17.3125 C 2.757812 -17.519531 2.421875 -17.675781 1.921875 -17.78125 C 1.535156 -17.894531 1.28125 -18.070312 1.15625 -18.3125 C 1.0625 -18.507812 1.054688 -18.71875 1.140625 -18.9375 C 1.222656 -19.15625 1.375 -19.3125 1.59375 -19.40625 Z M 1.59375 -19.40625 "/></g></g></g><g fill="#000000" fill-opacity="1"><g transform="translate(142.638482, 180.334784)"><g><path d="M 1.5625 -19.515625 C 1.707031 -19.554688 2.835938 -19.578125 4.953125 -19.578125 L 8.1875 -19.578125 L 8.46875 -19.375 C 8.851562 -19.15625 9.007812 -18.863281 8.9375 -18.5 C 8.914062 -18.0625 8.539062 -17.785156 7.8125 -17.671875 C 7.40625 -17.546875 7.15625 -17.351562 7.0625 -17.09375 C 7.007812 -16.894531 6.984375 -15.117188 6.984375 -11.765625 C 6.984375 -10.054688 6.988281 -8.726562 7 -7.78125 C 7.007812 -6.84375 7.03125 -6.265625 7.0625 -6.046875 C 7.375 -3.296875 8.613281 -1.921875 10.78125 -1.921875 C 11.144531 -1.921875 11.5 -1.960938 11.84375 -2.046875 C 12.195312 -2.128906 12.507812 -2.289062 12.78125 -2.53125 C 13.84375 -3.332031 14.46875 -4.6875 14.65625 -6.59375 C 14.6875 -6.851562 14.703125 -7.453125 14.703125 -8.390625 C 14.703125 -9.335938 14.703125 -10.617188 14.703125 -12.234375 L 14.703125 -12.53125 C 14.722656 -13.757812 14.726562 -14.722656 14.71875 -15.421875 C 14.707031 -16.117188 14.6875 -16.578125 14.65625 -16.796875 C 14.632812 -17.203125 14.53125 -17.457031 14.34375 -17.5625 C 14.164062 -17.65625 13.957031 -17.710938 13.71875 -17.734375 C 13.164062 -17.859375 12.828125 -18.039062 12.703125 -18.28125 C 12.628906 -18.40625 12.601562 -18.554688 12.625 -18.734375 C 12.65625 -18.910156 12.707031 -19.0625 12.78125 -19.1875 C 13 -19.40625 13.226562 -19.523438 13.46875 -19.546875 C 13.59375 -19.566406 13.875 -19.578125 14.3125 -19.578125 C 14.757812 -19.578125 15.367188 -19.578125 16.140625 -19.578125 L 18.9375 -19.578125 L 19.15625 -19.40625 C 19.414062 -19.238281 19.546875 -18.992188 19.546875 -18.671875 C 19.546875 -18.359375 19.425781 -18.132812 19.1875 -18 C 19.132812 -17.945312 18.941406 -17.882812 18.609375 -17.8125 C 18.203125 -17.71875 17.9375 -17.570312 17.8125 -17.375 C 17.738281 -17.257812 17.691406 -15.390625 17.671875 -11.765625 C 17.640625 -8.140625 17.601562 -6.148438 17.5625 -5.796875 C 17.144531 -3.835938 16.363281 -2.359375 15.21875 -1.359375 C 14.070312 -0.359375 12.5 0.140625 10.5 0.140625 C 8.570312 0.140625 6.953125 -0.3125 5.640625 -1.21875 C 4.335938 -2.125 3.484375 -3.539062 3.078125 -5.46875 C 3.023438 -5.726562 2.988281 -6.003906 2.96875 -6.296875 C 2.945312 -6.585938 2.921875 -6.890625 2.890625 -7.203125 C 2.867188 -7.515625 2.859375 -8.066406 2.859375 -8.859375 C 2.859375 -9.660156 2.847656 -10.710938 2.828125 -12.015625 C 2.828125 -15.472656 2.773438 -17.257812 2.671875 -17.375 C 2.578125 -17.519531 2.28125 -17.65625 1.78125 -17.78125 C 1.488281 -17.851562 1.253906 -17.984375 1.078125 -18.171875 C 0.910156 -18.367188 0.863281 -18.597656 0.9375 -18.859375 C 0.96875 -18.984375 1.039062 -19.117188 1.15625 -19.265625 C 1.28125 -19.410156 1.414062 -19.492188 1.5625 -19.515625 Z M 1.5625 -19.515625 "/></g></g></g><g fill="#000000" fill-opacity="1"><g transform="translate(168.758811, 180.334784)"><g><path d="M 1.671875 -19.484375 C 1.859375 -19.546875 2.65625 -19.578125 4.0625 -19.578125 C 5.457031 -19.578125 6.265625 -19.546875 6.484375 -19.484375 C 6.941406 -19.335938 7.289062 -19.070312 7.53125 -18.6875 C 7.65625 -18.488281 8.144531 -17.382812 9 -15.375 C 9.851562 -13.375 11.078125 -10.457031 12.671875 -6.625 C 12.910156 -5.96875 13.054688 -5.617188 13.109375 -5.578125 C 13.148438 -5.554688 13.1875 -5.59375 13.21875 -5.6875 C 13.257812 -5.800781 13.328125 -5.960938 13.421875 -6.171875 C 13.523438 -6.378906 13.660156 -6.675781 13.828125 -7.0625 C 13.992188 -7.445312 14.191406 -7.925781 14.421875 -8.5 C 14.648438 -9.082031 14.9375 -9.785156 15.28125 -10.609375 C 17.519531 -16.085938 18.710938 -18.910156 18.859375 -19.078125 C 19.003906 -19.222656 19.175781 -19.34375 19.375 -19.4375 C 19.539062 -19.53125 19.742188 -19.578125 19.984375 -19.578125 L 22.125 -19.578125 C 23.644531 -19.578125 24.5 -19.554688 24.6875 -19.515625 C 24.8125 -19.460938 24.9375 -19.367188 25.0625 -19.234375 C 25.195312 -19.109375 25.28125 -18.984375 25.3125 -18.859375 C 25.425781 -18.253906 25.160156 -17.859375 24.515625 -17.671875 C 24.097656 -17.523438 23.84375 -17.332031 23.75 -17.09375 L 23.5625 -16.828125 L 23.5625 -8.4375 C 23.5625 -6.914062 23.5625 -5.707031 23.5625 -4.8125 C 23.5625 -3.914062 23.578125 -3.335938 23.609375 -3.078125 C 23.628906 -2.546875 23.722656 -2.242188 23.890625 -2.171875 C 24.054688 -2.003906 24.265625 -1.90625 24.515625 -1.875 C 25.179688 -1.78125 25.515625 -1.457031 25.515625 -0.90625 C 25.515625 -0.539062 25.335938 -0.285156 24.984375 -0.140625 C 24.816406 -0.0664062 23.679688 -0.03125 21.578125 -0.03125 C 19.472656 -0.03125 18.347656 -0.0664062 18.203125 -0.140625 C 17.867188 -0.242188 17.675781 -0.507812 17.625 -0.9375 C 17.601562 -1.5625 17.976562 -1.925781 18.75 -2.03125 L 18.890625 -2.03125 C 19.179688 -2.070312 19.34375 -2.273438 19.375 -2.640625 C 19.394531 -2.835938 19.410156 -3.269531 19.421875 -3.9375 C 19.429688 -4.613281 19.425781 -5.546875 19.40625 -6.734375 L 19.40625 -14.40625 C 19.382812 -14.40625 18.984375 -13.5 18.203125 -11.6875 C 17.191406 -9.351562 16.375 -7.4375 15.75 -5.9375 C 15.125 -4.4375 14.664062 -3.375 14.375 -2.75 C 14.15625 -2.238281 13.976562 -1.90625 13.84375 -1.75 C 13.71875 -1.59375 13.546875 -1.457031 13.328125 -1.34375 C 13.035156 -1.21875 12.679688 -1.15625 12.265625 -1.15625 C 11.859375 -1.15625 11.5625 -1.1875 11.375 -1.25 C 11.195312 -1.3125 11 -1.453125 10.78125 -1.671875 C 10.644531 -1.785156 10.40625 -2.253906 10.0625 -3.078125 C 9.894531 -3.484375 9.742188 -3.851562 9.609375 -4.1875 C 9.472656 -4.53125 9.347656 -4.835938 9.234375 -5.109375 C 8.554688 -6.722656 7.957031 -8.148438 7.4375 -9.390625 C 6.914062 -10.640625 6.460938 -11.722656 6.078125 -12.640625 L 5.9375 -13 L 5.90625 -7.71875 L 5.90625 -2.390625 L 6.125 -2.203125 C 6.21875 -2.109375 6.335938 -2.035156 6.484375 -1.984375 C 7.160156 -1.847656 7.5 -1.523438 7.5 -1.015625 C 7.5 -0.628906 7.335938 -0.351562 7.015625 -0.1875 C 6.847656 -0.0820312 5.945312 -0.03125 4.3125 -0.03125 C 2.664062 -0.03125 1.757812 -0.0820312 1.59375 -0.1875 C 1.257812 -0.320312 1.09375 -0.585938 1.09375 -0.984375 C 1.09375 -1.535156 1.476562 -1.882812 2.25 -2.03125 L 2.390625 -2.03125 C 2.628906 -2.070312 2.757812 -2.320312 2.78125 -2.78125 C 2.8125 -3.03125 2.832031 -3.550781 2.84375 -4.34375 C 2.851562 -5.144531 2.859375 -6.242188 2.859375 -7.640625 L 2.859375 -16.875 L 2.671875 -17.15625 C 2.609375 -17.320312 2.523438 -17.4375 2.421875 -17.5 C 2.328125 -17.5625 2.085938 -17.675781 1.703125 -17.84375 C 1.296875 -18.039062 1.113281 -18.34375 1.15625 -18.75 C 1.207031 -19.09375 1.378906 -19.335938 1.671875 -19.484375 Z M 1.671875 -19.484375 "/></g></g></g><g fill="#000000" fill-opacity="1"><g transform="translate(201.026226, 180.334784)"><g><path d="M 1.625 -19.4375 C 1.75 -19.53125 2.921875 -19.578125 5.140625 -19.578125 C 7.359375 -19.578125 8.53125 -19.53125 8.65625 -19.4375 C 8.894531 -19.34375 9.050781 -19.179688 9.125 -18.953125 C 9.195312 -18.722656 9.1875 -18.5 9.09375 -18.28125 C 8.914062 -17.988281 8.597656 -17.796875 8.140625 -17.703125 C 7.710938 -17.578125 7.445312 -17.394531 7.34375 -17.15625 C 7.269531 -17.007812 7.234375 -14.5625 7.234375 -9.8125 C 7.234375 -5.050781 7.269531 -2.601562 7.34375 -2.46875 C 7.46875 -2.195312 7.757812 -1.988281 8.21875 -1.84375 C 8.65625 -1.726562 8.945312 -1.535156 9.09375 -1.265625 C 9.1875 -1.046875 9.191406 -0.832031 9.109375 -0.625 C 9.023438 -0.425781 8.875 -0.28125 8.65625 -0.1875 C 8.53125 -0.0820312 7.394531 -0.03125 5.25 -0.03125 C 3.070312 -0.03125 1.890625 -0.0664062 1.703125 -0.140625 C 1.484375 -0.242188 1.328125 -0.410156 1.234375 -0.640625 C 1.140625 -0.867188 1.148438 -1.101562 1.265625 -1.34375 C 1.390625 -1.632812 1.679688 -1.828125 2.140625 -1.921875 C 2.523438 -2.066406 2.773438 -2.234375 2.890625 -2.421875 C 2.960938 -2.566406 3 -5.039062 3 -9.84375 L 3 -10.640625 C 3 -12.328125 3 -13.660156 3 -14.640625 C 3 -15.617188 2.988281 -16.253906 2.96875 -16.546875 C 2.914062 -17.117188 2.804688 -17.457031 2.640625 -17.5625 C 2.617188 -17.632812 2.414062 -17.707031 2.03125 -17.78125 C 1.46875 -17.875 1.164062 -18.148438 1.125 -18.609375 C 1.101562 -18.992188 1.269531 -19.269531 1.625 -19.4375 Z M 1.625 -19.4375 "/></g></g></g><g fill="#000000" fill-opacity="1"><g transform="translate(216.97338, 180.334784)"><g><path d="M 16.828125 -19.765625 C 17.285156 -19.765625 17.613281 -19.609375 17.8125 -19.296875 L 18 -19.078125 L 18 -16 C 18.019531 -13.96875 18.019531 -12.867188 18 -12.703125 C 17.96875 -12.554688 17.867188 -12.398438 17.703125 -12.234375 C 17.535156 -12.066406 17.390625 -11.957031 17.265625 -11.90625 C 16.929688 -11.8125 16.617188 -11.859375 16.328125 -12.046875 C 16.035156 -12.242188 15.890625 -12.523438 15.890625 -12.890625 C 15.890625 -13.609375 15.75 -14.265625 15.46875 -14.859375 C 15.195312 -15.453125 14.828125 -15.953125 14.359375 -16.359375 C 13.890625 -16.773438 13.34375 -17.097656 12.71875 -17.328125 C 12.101562 -17.554688 11.457031 -17.671875 10.78125 -17.671875 C 9.894531 -17.671875 9.113281 -17.476562 8.4375 -17.09375 C 7.757812 -16.707031 7.191406 -16.191406 6.734375 -15.546875 C 6.273438 -14.910156 5.914062 -14.195312 5.65625 -13.40625 C 5.40625 -12.625 5.234375 -11.835938 5.140625 -11.046875 C 5.117188 -10.828125 5.097656 -10.566406 5.078125 -10.265625 C 5.066406 -9.960938 5.078125 -9.609375 5.109375 -9.203125 C 5.128906 -8.785156 5.148438 -8.429688 5.171875 -8.140625 C 5.203125 -7.859375 5.238281 -7.617188 5.28125 -7.421875 C 5.550781 -6.046875 6.046875 -4.910156 6.765625 -4.015625 C 7.492188 -3.117188 8.375 -2.503906 9.40625 -2.171875 C 9.726562 -2.078125 10.273438 -2.03125 11.046875 -2.03125 C 11.398438 -2.03125 11.695312 -2.035156 11.9375 -2.046875 C 12.1875 -2.054688 12.367188 -2.070312 12.484375 -2.09375 C 14.347656 -2.582031 15.773438 -3.660156 16.765625 -5.328125 C 16.878906 -5.515625 16.96875 -5.65625 17.03125 -5.75 C 17.09375 -5.851562 17.132812 -5.914062 17.15625 -5.9375 C 17.351562 -6.03125 17.5625 -6.035156 17.78125 -5.953125 C 18 -5.867188 18.15625 -5.742188 18.25 -5.578125 C 18.363281 -5.410156 18.253906 -4.972656 17.921875 -4.265625 C 17.171875 -2.703125 16.195312 -1.582031 15 -0.90625 C 13.8125 -0.226562 12.382812 0.109375 10.71875 0.109375 C 8.226562 0.109375 6.113281 -0.519531 4.375 -1.78125 C 2.644531 -3.050781 1.550781 -4.976562 1.09375 -7.5625 C 0.894531 -8.789062 0.859375 -10.019531 0.984375 -11.25 C 1.117188 -12.488281 1.429688 -13.566406 1.921875 -14.484375 C 2.742188 -16.097656 3.894531 -17.34375 5.375 -18.21875 C 6.863281 -19.101562 8.5 -19.546875 10.28125 -19.546875 C 11.582031 -19.546875 12.921875 -19.296875 14.296875 -18.796875 C 14.785156 -18.648438 15.085938 -18.578125 15.203125 -18.578125 C 15.421875 -18.578125 15.640625 -18.78125 15.859375 -19.1875 C 16.023438 -19.570312 16.347656 -19.765625 16.828125 -19.765625 Z M 16.828125 -19.765625 "/></g></g></g><g fill="#000000" fill-opacity="1"><g transform="translate(242.072449, 180.334784)"><g><path d="M 10.9375 -17.453125 C 10.71875 -17.492188 10.03125 -17.539062 8.875 -17.59375 L 7.203125 -17.625 L 7.203125 -10.9375 L 8.6875 -10.9375 C 9.65625 -10.9375 10.296875 -10.972656 10.609375 -11.046875 C 11.359375 -11.210938 11.941406 -11.597656 12.359375 -12.203125 C 12.785156 -12.804688 12.972656 -13.566406 12.921875 -14.484375 C 12.878906 -15.273438 12.695312 -15.90625 12.375 -16.375 C 12.0625 -16.851562 11.582031 -17.210938 10.9375 -17.453125 Z M 1.921875 -19.515625 C 1.992188 -19.535156 2.375 -19.550781 3.0625 -19.5625 C 3.75 -19.570312 4.769531 -19.578125 6.125 -19.578125 C 7.445312 -19.578125 8.5 -19.570312 9.28125 -19.5625 C 10.070312 -19.550781 10.585938 -19.535156 10.828125 -19.515625 C 12.367188 -19.421875 13.644531 -19.054688 14.65625 -18.421875 C 15.019531 -18.253906 15.390625 -17.976562 15.765625 -17.59375 C 16.140625 -17.207031 16.410156 -16.867188 16.578125 -16.578125 C 16.960938 -15.828125 17.144531 -14.988281 17.125 -14.0625 C 17.101562 -13.132812 16.882812 -12.332031 16.46875 -11.65625 C 16.15625 -11.125 15.710938 -10.675781 15.140625 -10.3125 C 14.410156 -9.882812 13.476562 -9.570312 12.34375 -9.375 L 12.015625 -9.34375 L 12.34375 -9.09375 C 13 -8.582031 13.554688 -7.960938 14.015625 -7.234375 C 14.546875 -6.441406 15.050781 -5.441406 15.53125 -4.234375 C 15.84375 -3.441406 16.128906 -2.867188 16.390625 -2.515625 C 16.660156 -2.160156 16.976562 -1.914062 17.34375 -1.78125 C 17.632812 -1.675781 17.859375 -1.546875 18.015625 -1.390625 C 18.171875 -1.234375 18.257812 -1.078125 18.28125 -0.921875 C 18.300781 -0.765625 18.269531 -0.617188 18.1875 -0.484375 C 18.101562 -0.359375 17.976562 -0.269531 17.8125 -0.21875 C 17.664062 -0.144531 16.894531 -0.109375 15.5 -0.109375 C 14.125 -0.109375 13.335938 -0.144531 13.140625 -0.21875 C 12.878906 -0.3125 12.6875 -0.46875 12.5625 -0.6875 C 12.4375 -0.90625 12.289062 -1.328125 12.125 -1.953125 C 12.007812 -2.503906 11.867188 -3.007812 11.703125 -3.46875 C 11.546875 -3.925781 11.382812 -4.363281 11.21875 -4.78125 C 10.46875 -6.488281 9.492188 -7.828125 8.296875 -8.796875 C 8.003906 -9.015625 7.75 -9.125 7.53125 -9.125 L 7.203125 -9.125 L 7.203125 -5.859375 C 7.222656 -4.972656 7.234375 -4.269531 7.234375 -3.75 C 7.234375 -3.226562 7.25 -2.882812 7.28125 -2.71875 C 7.320312 -2.351562 7.429688 -2.125 7.609375 -2.03125 C 7.722656 -1.925781 7.890625 -1.863281 8.109375 -1.84375 C 8.546875 -1.726562 8.820312 -1.570312 8.9375 -1.375 C 9.039062 -1.15625 9.0625 -0.9375 9 -0.71875 C 8.9375 -0.5 8.796875 -0.34375 8.578125 -0.25 C 8.410156 -0.15625 7.238281 -0.109375 5.0625 -0.109375 C 4.144531 -0.128906 3.421875 -0.140625 2.890625 -0.140625 C 2.359375 -0.140625 2.019531 -0.15625 1.875 -0.1875 C 1.539062 -0.226562 1.328125 -0.347656 1.234375 -0.546875 C 1.085938 -0.734375 1.050781 -0.953125 1.125 -1.203125 C 1.195312 -1.460938 1.328125 -1.640625 1.515625 -1.734375 C 1.640625 -1.828125 1.820312 -1.890625 2.0625 -1.921875 C 2.5 -1.941406 2.773438 -2.109375 2.890625 -2.421875 C 2.960938 -2.617188 3 -5.019531 3 -9.625 C 3 -14.238281 2.960938 -16.664062 2.890625 -16.90625 C 2.796875 -17.269531 2.546875 -17.507812 2.140625 -17.625 C 1.722656 -17.820312 1.46875 -18.015625 1.375 -18.203125 C 1.28125 -18.472656 1.285156 -18.734375 1.390625 -18.984375 C 1.503906 -19.242188 1.679688 -19.421875 1.921875 -19.515625 Z M 1.921875 -19.515625 "/></g></g></g><g fill="#000000" fill-opacity="1"><g transform="translate(266.955486, 180.334784)"><g><path d="M 11.40625 -12.703125 C 10.96875 -13.816406 10.726562 -14.394531 10.6875 -14.4375 L 10.640625 -14.40625 C 10.640625 -14.382812 10.628906 -14.363281 10.609375 -14.34375 C 10.609375 -14.269531 10.453125 -13.878906 10.140625 -13.171875 C 8.765625 -9.890625 8.078125 -8.210938 8.078125 -8.140625 C 8.078125 -8.117188 8.910156 -8.109375 10.578125 -8.109375 L 13.0625 -8.109375 L 12.890625 -8.578125 C 12.867188 -8.703125 12.785156 -8.9375 12.640625 -9.28125 C 12.492188 -9.632812 12.394531 -9.90625 12.34375 -10.09375 C 12.269531 -10.34375 12.113281 -10.78125 11.875 -11.40625 C 11.75 -11.71875 11.648438 -11.984375 11.578125 -12.203125 C 11.503906 -12.421875 11.445312 -12.585938 11.40625 -12.703125 Z M 10.609375 -19.65625 C 10.679688 -19.707031 10.847656 -19.734375 11.109375 -19.734375 C 11.523438 -19.734375 11.882812 -19.664062 12.1875 -19.53125 C 12.488281 -19.394531 12.734375 -19.132812 12.921875 -18.75 C 13.085938 -18.414062 13.617188 -17.144531 14.515625 -14.9375 C 15.410156 -12.726562 16.664062 -9.535156 18.28125 -5.359375 C 18.625 -4.535156 18.890625 -3.894531 19.078125 -3.4375 C 19.273438 -2.976562 19.410156 -2.691406 19.484375 -2.578125 C 19.742188 -2.140625 20.128906 -1.835938 20.640625 -1.671875 C 21.191406 -1.492188 21.492188 -1.203125 21.546875 -0.796875 C 21.546875 -0.597656 21.492188 -0.414062 21.390625 -0.25 C 21.273438 -0.0078125 21.0625 0.117188 20.75 0.140625 C 20.570312 0.171875 20.210938 0.1875 19.671875 0.1875 C 19.128906 0.1875 18.398438 0.1875 17.484375 0.1875 L 17.15625 0.1875 C 14.695312 0.1875 13.40625 0.132812 13.28125 0.03125 C 12.96875 -0.113281 12.800781 -0.351562 12.78125 -0.6875 C 12.757812 -1.019531 12.878906 -1.285156 13.140625 -1.484375 C 13.234375 -1.578125 13.4375 -1.660156 13.75 -1.734375 C 14.332031 -1.878906 14.660156 -2.132812 14.734375 -2.5 C 14.804688 -2.863281 14.6875 -3.503906 14.375 -4.421875 C 14.25 -4.753906 14.144531 -5.023438 14.0625 -5.234375 C 13.976562 -5.441406 13.910156 -5.601562 13.859375 -5.71875 L 13.71875 -6.046875 L 10.46875 -6.046875 L 7.203125 -6.078125 L 7.125 -5.859375 C 7.101562 -5.835938 7.015625 -5.644531 6.859375 -5.28125 C 6.703125 -4.925781 6.53125 -4.53125 6.34375 -4.09375 C 6.164062 -3.65625 6.003906 -3.25 5.859375 -2.875 C 5.710938 -2.5 5.640625 -2.289062 5.640625 -2.25 C 5.640625 -2.050781 5.859375 -1.859375 6.296875 -1.671875 C 6.660156 -1.546875 6.894531 -1.34375 7 -1.0625 C 7.113281 -0.789062 7.070312 -0.507812 6.875 -0.21875 C 6.78125 -0.0195312 6.578125 0.0976562 6.265625 0.140625 C 6.117188 0.171875 5.820312 0.1875 5.375 0.1875 C 4.925781 0.1875 4.328125 0.1875 3.578125 0.1875 C 1.773438 0.1875 0.800781 0.148438 0.65625 0.078125 C 0.34375 -0.0664062 0.1875 -0.3125 0.1875 -0.65625 C 0.1875 -0.875 0.269531 -1.066406 0.4375 -1.234375 C 0.601562 -1.398438 0.757812 -1.492188 0.90625 -1.515625 C 1.800781 -1.617188 2.378906 -1.863281 2.640625 -2.25 C 2.785156 -2.394531 2.96875 -2.734375 3.1875 -3.265625 C 4.4375 -6.347656 5.535156 -9.035156 6.484375 -11.328125 C 7.441406 -13.617188 8.257812 -15.550781 8.9375 -17.125 C 9.207031 -17.726562 9.421875 -18.195312 9.578125 -18.53125 C 9.734375 -18.875 9.835938 -19.082031 9.890625 -19.15625 C 10.054688 -19.394531 10.296875 -19.5625 10.609375 -19.65625 Z M 10.609375 -19.65625 "/></g></g></g><g fill="#000000" fill-opacity="1"><g transform="translate(294.313082, 180.334784)"><g><path d="M 0.9375 -19.515625 C 1.082031 -19.554688 3.847656 -19.578125 9.234375 -19.578125 C 14.617188 -19.578125 17.40625 -19.554688 17.59375 -19.515625 C 17.8125 -19.421875 17.929688 -19.265625 17.953125 -19.046875 C 17.984375 -18.921875 18 -18.71875 18 -18.4375 C 18 -18.164062 18 -17.789062 18 -17.3125 C 18.019531 -16.195312 17.992188 -15.554688 17.921875 -15.390625 C 17.753906 -15.078125 17.460938 -14.929688 17.046875 -14.953125 C 16.878906 -15.003906 16.726562 -15.109375 16.59375 -15.265625 C 16.46875 -15.421875 16.304688 -15.691406 16.109375 -16.078125 C 15.867188 -16.554688 15.660156 -16.894531 15.484375 -17.09375 C 15.316406 -17.300781 15.113281 -17.457031 14.875 -17.5625 L 14.515625 -17.78125 L 12.953125 -17.8125 L 11.375 -17.8125 L 11.375 -10.203125 C 11.375 -5.234375 11.394531 -2.628906 11.4375 -2.390625 C 11.507812 -2.097656 11.785156 -1.914062 12.265625 -1.84375 C 12.535156 -1.800781 12.75 -1.691406 12.90625 -1.515625 C 13.0625 -1.347656 13.140625 -1.179688 13.140625 -1.015625 C 13.140625 -0.648438 12.992188 -0.394531 12.703125 -0.25 C 12.554688 -0.132812 11.375 -0.0976562 9.15625 -0.140625 C 8.3125 -0.171875 7.644531 -0.1875 7.15625 -0.1875 C 6.675781 -0.1875 6.351562 -0.1875 6.1875 -0.1875 C 5.894531 -0.1875 5.691406 -0.222656 5.578125 -0.296875 C 5.285156 -0.503906 5.175781 -0.78125 5.25 -1.125 C 5.300781 -1.507812 5.59375 -1.75 6.125 -1.84375 C 6.582031 -1.9375 6.859375 -2.109375 6.953125 -2.359375 C 7.023438 -2.472656 7.0625 -5.066406 7.0625 -10.140625 L 7.0625 -17.8125 L 5.5 -17.8125 C 4.65625 -17.757812 4.125 -17.722656 3.90625 -17.703125 C 3.71875 -17.679688 3.488281 -17.535156 3.21875 -17.265625 C 2.90625 -17.023438 2.507812 -16.445312 2.03125 -15.53125 C 1.863281 -15.144531 1.597656 -14.953125 1.234375 -14.953125 C 0.867188 -14.953125 0.625 -15.0625 0.5 -15.28125 C 0.476562 -15.394531 0.441406 -15.972656 0.390625 -17.015625 C 0.367188 -17.546875 0.363281 -17.960938 0.375 -18.265625 C 0.382812 -18.566406 0.40625 -18.765625 0.4375 -18.859375 C 0.507812 -19.148438 0.675781 -19.367188 0.9375 -19.515625 Z M 0.9375 -19.515625 "/></g></g></g><g fill="#000000" fill-opacity="1"><g transform="translate(318.371264, 180.334784)"><g><path d="M 1.515625 -19.1875 C 1.710938 -19.382812 1.847656 -19.492188 1.921875 -19.515625 C 2.066406 -19.554688 4.6875 -19.578125 9.78125 -19.578125 C 14.863281 -19.578125 17.492188 -19.53125 17.671875 -19.4375 C 17.742188 -19.414062 17.851562 -19.332031 18 -19.1875 C 18.09375 -19.09375 18.140625 -18.476562 18.140625 -17.34375 C 18.160156 -16.789062 18.164062 -16.347656 18.15625 -16.015625 C 18.144531 -15.691406 18.128906 -15.492188 18.109375 -15.421875 C 17.984375 -15.054688 17.71875 -14.875 17.3125 -14.875 C 17.0625 -14.875 16.863281 -14.945312 16.71875 -15.09375 C 16.582031 -15.1875 16.460938 -15.414062 16.359375 -15.78125 C 16.003906 -16.820312 15.507812 -17.4375 14.875 -17.625 C 14.757812 -17.675781 14.375 -17.710938 13.71875 -17.734375 C 13.070312 -17.765625 12.128906 -17.789062 10.890625 -17.8125 L 7.28125 -17.8125 L 7.28125 -10.9375 L 9.5625 -10.9375 C 11.082031 -10.9375 11.890625 -10.945312 11.984375 -10.96875 C 12.492188 -11.132812 12.84375 -11.640625 13.03125 -12.484375 C 13.175781 -13.085938 13.503906 -13.390625 14.015625 -13.390625 C 14.515625 -13.390625 14.835938 -13.210938 14.984375 -12.859375 C 15.035156 -12.710938 15.0625 -11.753906 15.0625 -9.984375 L 15.0625 -7.28125 L 14.875 -7.125 C 14.632812 -6.914062 14.296875 -6.832031 13.859375 -6.875 C 13.429688 -6.925781 13.179688 -7.070312 13.109375 -7.3125 C 13.054688 -7.363281 12.992188 -7.507812 12.921875 -7.75 C 12.734375 -8.519531 12.382812 -8.953125 11.875 -9.046875 C 11.675781 -9.097656 10.878906 -9.125 9.484375 -9.125 L 7.28125 -9.125 L 7.28125 -1.953125 L 10.890625 -1.953125 C 12.941406 -1.972656 14.148438 -2.007812 14.515625 -2.0625 C 14.898438 -2.113281 15.203125 -2.25 15.421875 -2.46875 C 15.785156 -2.78125 16.050781 -3.222656 16.21875 -3.796875 C 16.382812 -4.429688 16.722656 -4.75 17.234375 -4.75 C 17.640625 -4.75 17.914062 -4.566406 18.0625 -4.203125 C 18.132812 -4.035156 18.160156 -3.441406 18.140625 -2.421875 L 18.140625 -0.828125 L 17.953125 -0.546875 C 17.835938 -0.378906 17.707031 -0.269531 17.5625 -0.21875 C 17.507812 -0.195312 17.375 -0.171875 17.15625 -0.140625 C 16.9375 -0.117188 16.648438 -0.109375 16.296875 -0.109375 C 15.910156 -0.0859375 15.164062 -0.078125 14.0625 -0.078125 C 12.96875 -0.078125 11.503906 -0.078125 9.671875 -0.078125 C 7.109375 -0.046875 5.175781 -0.0351562 3.875 -0.046875 C 2.570312 -0.0664062 1.882812 -0.0859375 1.8125 -0.109375 C 1.644531 -0.160156 1.492188 -0.253906 1.359375 -0.390625 C 1.222656 -0.535156 1.144531 -0.695312 1.125 -0.875 C 1.070312 -1.539062 1.429688 -1.898438 2.203125 -1.953125 C 2.617188 -2.003906 2.898438 -2.1875 3.046875 -2.5 C 3.140625 -2.613281 3.160156 -5.015625 3.109375 -9.703125 L 3.109375 -16.765625 L 2.96875 -17.09375 C 2.820312 -17.332031 2.507812 -17.546875 2.03125 -17.734375 C 1.664062 -17.859375 1.429688 -18.066406 1.328125 -18.359375 C 1.234375 -18.648438 1.296875 -18.925781 1.515625 -19.1875 Z M 1.515625 -19.1875 "/></g></g></g><g fill="#000000" fill-opacity="1"><g transform="translate(119.982674, 210.5063)"><g><path d="M 12.78125 -19.796875 C 13.09375 -19.921875 13.382812 -19.9375 13.65625 -19.84375 C 13.769531 -19.769531 13.898438 -19.660156 14.046875 -19.515625 C 14.191406 -19.367188 14.273438 -19.234375 14.296875 -19.109375 C 14.328125 -19.066406 14.34375 -18.820312 14.34375 -18.375 C 14.34375 -17.925781 14.34375 -17.304688 14.34375 -16.515625 C 14.34375 -14.816406 14.328125 -13.921875 14.296875 -13.828125 C 14.179688 -13.535156 13.976562 -13.304688 13.6875 -13.140625 C 13.375 -12.992188 13.046875 -13.019531 12.703125 -13.21875 C 12.515625 -13.3125 12.320312 -13.578125 12.125 -14.015625 C 11.757812 -15.023438 11.160156 -15.875 10.328125 -16.5625 C 9.503906 -17.25 8.546875 -17.59375 7.453125 -17.59375 C 7.023438 -17.59375 6.550781 -17.535156 6.03125 -17.421875 C 5.507812 -17.316406 5.113281 -17.070312 4.84375 -16.6875 C 4.4375 -16.132812 4.367188 -15.53125 4.640625 -14.875 C 4.878906 -14.375 5.378906 -13.820312 6.140625 -13.21875 C 6.898438 -12.613281 8.085938 -11.816406 9.703125 -10.828125 C 12.578125 -9.035156 14.207031 -7.359375 14.59375 -5.796875 C 14.632812 -5.523438 14.660156 -5.238281 14.671875 -4.9375 C 14.691406 -4.632812 14.675781 -4.289062 14.625 -3.90625 C 14.3125 -1.851562 12.816406 -0.585938 10.140625 -0.109375 C 9.847656 -0.0351562 9.28125 0 8.4375 0 C 7.351562 0 6.109375 -0.164062 4.703125 -0.5 C 4.128906 -0.675781 3.734375 -0.765625 3.515625 -0.765625 C 3.148438 -0.765625 2.867188 -0.582031 2.671875 -0.21875 L 2.578125 0.03125 L 2.03125 0.03125 C 1.5 0.03125 1.148438 -0.125 0.984375 -0.4375 C 0.878906 -0.582031 0.828125 -0.738281 0.828125 -0.90625 C 0.804688 -1.03125 0.796875 -1.269531 0.796875 -1.625 C 0.796875 -1.988281 0.796875 -2.460938 0.796875 -3.046875 C 0.816406 -3.617188 0.828125 -4.078125 0.828125 -4.421875 C 0.828125 -4.773438 0.828125 -5.015625 0.828125 -5.140625 C 0.828125 -5.378906 0.878906 -5.5625 0.984375 -5.6875 C 1.148438 -6 1.4375 -6.15625 1.84375 -6.15625 C 2.082031 -6.15625 2.265625 -6.097656 2.390625 -5.984375 C 2.515625 -5.878906 2.671875 -5.632812 2.859375 -5.25 C 3.335938 -4.207031 3.992188 -3.492188 4.828125 -3.109375 C 5.660156 -2.722656 6.609375 -2.53125 7.671875 -2.53125 C 8.160156 -2.53125 8.570312 -2.597656 8.90625 -2.734375 C 9.238281 -2.867188 9.578125 -3.101562 9.921875 -3.4375 C 10.160156 -3.707031 10.316406 -3.9375 10.390625 -4.125 C 10.460938 -4.320312 10.5 -4.613281 10.5 -5 C 10.5 -5.625 10.316406 -6.128906 9.953125 -6.515625 C 9.585938 -6.898438 9.164062 -7.265625 8.6875 -7.609375 C 8.5 -7.722656 8.203125 -7.894531 7.796875 -8.125 C 7.398438 -8.351562 6.898438 -8.640625 6.296875 -8.984375 C 5.722656 -9.296875 5.117188 -9.640625 4.484375 -10.015625 C 3.859375 -10.390625 3.285156 -10.804688 2.765625 -11.265625 C 2.242188 -11.722656 1.804688 -12.238281 1.453125 -12.8125 C 1.109375 -13.394531 0.925781 -14.0625 0.90625 -14.8125 C 0.832031 -15.988281 1.179688 -16.960938 1.953125 -17.734375 C 3.179688 -18.992188 5.003906 -19.625 7.421875 -19.625 C 8.671875 -19.625 9.878906 -19.476562 11.046875 -19.1875 C 11.378906 -19.113281 11.628906 -19.078125 11.796875 -19.078125 C 12.015625 -19.078125 12.140625 -19.113281 12.171875 -19.1875 C 12.210938 -19.238281 12.25 -19.285156 12.28125 -19.328125 C 12.320312 -19.378906 12.367188 -19.441406 12.421875 -19.515625 C 12.585938 -19.679688 12.707031 -19.773438 12.78125 -19.796875 Z M 12.78125 -19.796875 "/></g></g></g><g fill="#000000" fill-opacity="1"><g transform="translate(142.616613, 210.5063)"><g><path d="M 10.578125 -17.8125 C 9.335938 -17.8125 8.332031 -17.410156 7.5625 -16.609375 C 6.789062 -15.816406 6.238281 -14.863281 5.90625 -13.75 C 5.632812 -12.832031 5.472656 -11.773438 5.421875 -10.578125 C 5.378906 -9.390625 5.453125 -8.273438 5.640625 -7.234375 C 5.960938 -5.503906 6.570312 -4.15625 7.46875 -3.1875 C 8.375 -2.21875 9.445312 -1.734375 10.6875 -1.734375 C 11.644531 -1.734375 12.445312 -1.976562 13.09375 -2.46875 C 13.75 -2.96875 14.273438 -3.597656 14.671875 -4.359375 C 15.078125 -5.117188 15.367188 -5.945312 15.546875 -6.84375 C 15.734375 -7.738281 15.835938 -8.570312 15.859375 -9.34375 C 15.898438 -10.59375 15.820312 -11.707031 15.625 -12.6875 C 15.4375 -13.664062 15.148438 -14.503906 14.765625 -15.203125 C 14.304688 -16.003906 13.722656 -16.640625 13.015625 -17.109375 C 12.304688 -17.578125 11.492188 -17.8125 10.578125 -17.8125 Z M 10.5 -19.796875 C 12.09375 -19.796875 13.539062 -19.519531 14.84375 -18.96875 C 16.144531 -18.414062 17.300781 -17.488281 18.3125 -16.1875 C 18.582031 -15.914062 18.863281 -15.476562 19.15625 -14.875 C 19.300781 -14.5625 19.421875 -14.269531 19.515625 -14 C 19.609375 -13.738281 19.691406 -13.515625 19.765625 -13.328125 C 20.203125 -11.953125 20.378906 -10.515625 20.296875 -9.015625 C 20.210938 -7.515625 19.84375 -6.113281 19.1875 -4.8125 C 17.8125 -2.0625 15.601562 -0.410156 12.5625 0.140625 C 12.363281 0.191406 12.085938 0.226562 11.734375 0.25 C 11.390625 0.28125 10.988281 0.296875 10.53125 0.296875 C 9.6875 0.296875 8.921875 0.226562 8.234375 0.09375 C 7.546875 -0.0390625 6.816406 -0.273438 6.046875 -0.609375 C 4.578125 -1.359375 3.410156 -2.4375 2.546875 -3.84375 C 1.691406 -5.257812 1.171875 -6.921875 0.984375 -8.828125 C 0.910156 -9.671875 0.929688 -10.507812 1.046875 -11.34375 C 1.171875 -12.175781 1.390625 -12.976562 1.703125 -13.75 C 2.015625 -14.53125 2.40625 -15.253906 2.875 -15.921875 C 3.34375 -16.597656 3.878906 -17.191406 4.484375 -17.703125 C 5.328125 -18.398438 6.269531 -18.921875 7.3125 -19.265625 C 8.351562 -19.617188 9.414062 -19.796875 10.5 -19.796875 Z M 10.5 -19.796875 "/></g></g></g><g fill="#000000" fill-opacity="1"><g transform="translate(170.932278, 210.5063)"><g><path d="M 1.59375 -19.40625 C 1.71875 -19.476562 2.910156 -19.515625 5.171875 -19.515625 C 7.460938 -19.515625 8.671875 -19.46875 8.796875 -19.375 C 9.085938 -19.175781 9.222656 -18.875 9.203125 -18.46875 C 9.203125 -18.269531 9.082031 -18.101562 8.84375 -17.96875 C 8.613281 -17.84375 8.414062 -17.753906 8.25 -17.703125 C 7.71875 -17.554688 7.40625 -17.300781 7.3125 -16.9375 C 7.289062 -16.84375 7.269531 -16.191406 7.25 -14.984375 C 7.238281 -13.773438 7.234375 -11.988281 7.234375 -9.625 C 7.234375 -4.96875 7.257812 -2.546875 7.3125 -2.359375 C 7.332031 -2.210938 7.414062 -2.085938 7.5625 -1.984375 C 7.613281 -1.960938 7.679688 -1.9375 7.765625 -1.90625 C 7.847656 -1.882812 7.953125 -1.875 8.078125 -1.875 C 8.191406 -1.851562 8.441406 -1.84375 8.828125 -1.84375 C 9.210938 -1.84375 9.734375 -1.84375 10.390625 -1.84375 C 12.128906 -1.84375 13.117188 -1.878906 13.359375 -1.953125 C 13.691406 -2.046875 13.984375 -2.222656 14.234375 -2.484375 C 14.492188 -2.753906 14.769531 -3.179688 15.0625 -3.765625 C 15.175781 -3.984375 15.304688 -4.203125 15.453125 -4.421875 C 15.597656 -4.640625 15.804688 -4.75 16.078125 -4.75 C 16.410156 -4.75 16.660156 -4.601562 16.828125 -4.3125 C 16.929688 -4.144531 16.96875 -3.503906 16.9375 -2.390625 C 16.9375 -1.929688 16.929688 -1.5625 16.921875 -1.28125 C 16.910156 -1.007812 16.894531 -0.8125 16.875 -0.6875 C 16.84375 -0.488281 16.722656 -0.304688 16.515625 -0.140625 L 16.296875 0 L 9.234375 0 C 6.867188 0.0195312 5.082031 0.0234375 3.875 0.015625 C 2.664062 0.00390625 2.023438 -0.0078125 1.953125 -0.03125 C 1.785156 -0.0625 1.640625 -0.160156 1.515625 -0.328125 C 1.367188 -0.472656 1.296875 -0.65625 1.296875 -0.875 C 1.296875 -1.082031 1.34375 -1.257812 1.4375 -1.40625 C 1.539062 -1.550781 1.882812 -1.757812 2.46875 -2.03125 C 2.488281 -2.050781 2.507812 -2.0625 2.53125 -2.0625 C 2.5625 -2.0625 2.585938 -2.070312 2.609375 -2.09375 C 2.847656 -2.21875 2.976562 -2.507812 3 -2.96875 C 3.03125 -3.207031 3.050781 -3.75 3.0625 -4.59375 C 3.070312 -5.4375 3.066406 -6.582031 3.046875 -8.03125 L 3.046875 -17.09375 L 2.9375 -17.3125 C 2.757812 -17.519531 2.421875 -17.675781 1.921875 -17.78125 C 1.535156 -17.894531 1.28125 -18.070312 1.15625 -18.3125 C 1.0625 -18.507812 1.054688 -18.71875 1.140625 -18.9375 C 1.222656 -19.15625 1.375 -19.3125 1.59375 -19.40625 Z M 1.59375 -19.40625 "/></g></g></g><g fill="#000000" fill-opacity="1"><g transform="translate(195.251718, 210.5063)"><g><path d="M 1.5625 -19.515625 C 1.707031 -19.554688 2.835938 -19.578125 4.953125 -19.578125 L 8.1875 -19.578125 L 8.46875 -19.375 C 8.851562 -19.15625 9.007812 -18.863281 8.9375 -18.5 C 8.914062 -18.0625 8.539062 -17.785156 7.8125 -17.671875 C 7.40625 -17.546875 7.15625 -17.351562 7.0625 -17.09375 C 7.007812 -16.894531 6.984375 -15.117188 6.984375 -11.765625 C 6.984375 -10.054688 6.988281 -8.726562 7 -7.78125 C 7.007812 -6.84375 7.03125 -6.265625 7.0625 -6.046875 C 7.375 -3.296875 8.613281 -1.921875 10.78125 -1.921875 C 11.144531 -1.921875 11.5 -1.960938 11.84375 -2.046875 C 12.195312 -2.128906 12.507812 -2.289062 12.78125 -2.53125 C 13.84375 -3.332031 14.46875 -4.6875 14.65625 -6.59375 C 14.6875 -6.851562 14.703125 -7.453125 14.703125 -8.390625 C 14.703125 -9.335938 14.703125 -10.617188 14.703125 -12.234375 L 14.703125 -12.53125 C 14.722656 -13.757812 14.726562 -14.722656 14.71875 -15.421875 C 14.707031 -16.117188 14.6875 -16.578125 14.65625 -16.796875 C 14.632812 -17.203125 14.53125 -17.457031 14.34375 -17.5625 C 14.164062 -17.65625 13.957031 -17.710938 13.71875 -17.734375 C 13.164062 -17.859375 12.828125 -18.039062 12.703125 -18.28125 C 12.628906 -18.40625 12.601562 -18.554688 12.625 -18.734375 C 12.65625 -18.910156 12.707031 -19.0625 12.78125 -19.1875 C 13 -19.40625 13.226562 -19.523438 13.46875 -19.546875 C 13.59375 -19.566406 13.875 -19.578125 14.3125 -19.578125 C 14.757812 -19.578125 15.367188 -19.578125 16.140625 -19.578125 L 18.9375 -19.578125 L 19.15625 -19.40625 C 19.414062 -19.238281 19.546875 -18.992188 19.546875 -18.671875 C 19.546875 -18.359375 19.425781 -18.132812 19.1875 -18 C 19.132812 -17.945312 18.941406 -17.882812 18.609375 -17.8125 C 18.203125 -17.71875 17.9375 -17.570312 17.8125 -17.375 C 17.738281 -17.257812 17.691406 -15.390625 17.671875 -11.765625 C 17.640625 -8.140625 17.601562 -6.148438 17.5625 -5.796875 C 17.144531 -3.835938 16.363281 -2.359375 15.21875 -1.359375 C 14.070312 -0.359375 12.5 0.140625 10.5 0.140625 C 8.570312 0.140625 6.953125 -0.3125 5.640625 -1.21875 C 4.335938 -2.125 3.484375 -3.539062 3.078125 -5.46875 C 3.023438 -5.726562 2.988281 -6.003906 2.96875 -6.296875 C 2.945312 -6.585938 2.921875 -6.890625 2.890625 -7.203125 C 2.867188 -7.515625 2.859375 -8.066406 2.859375 -8.859375 C 2.859375 -9.660156 2.847656 -10.710938 2.828125 -12.015625 C 2.828125 -15.472656 2.773438 -17.257812 2.671875 -17.375 C 2.578125 -17.519531 2.28125 -17.65625 1.78125 -17.78125 C 1.488281 -17.851562 1.253906 -17.984375 1.078125 -18.171875 C 0.910156 -18.367188 0.863281 -18.597656 0.9375 -18.859375 C 0.96875 -18.984375 1.039062 -19.117188 1.15625 -19.265625 C 1.28125 -19.410156 1.414062 -19.492188 1.5625 -19.515625 Z M 1.5625 -19.515625 "/></g></g></g><g fill="#000000" fill-opacity="1"><g transform="translate(222.790559, 210.5063)"><g><path d="M 0.9375 -19.515625 C 1.082031 -19.554688 3.847656 -19.578125 9.234375 -19.578125 C 14.617188 -19.578125 17.40625 -19.554688 17.59375 -19.515625 C 17.8125 -19.421875 17.929688 -19.265625 17.953125 -19.046875 C 17.984375 -18.921875 18 -18.71875 18 -18.4375 C 18 -18.164062 18 -17.789062 18 -17.3125 C 18.019531 -16.195312 17.992188 -15.554688 17.921875 -15.390625 C 17.753906 -15.078125 17.460938 -14.929688 17.046875 -14.953125 C 16.878906 -15.003906 16.726562 -15.109375 16.59375 -15.265625 C 16.46875 -15.421875 16.304688 -15.691406 16.109375 -16.078125 C 15.867188 -16.554688 15.660156 -16.894531 15.484375 -17.09375 C 15.316406 -17.300781 15.113281 -17.457031 14.875 -17.5625 L 14.515625 -17.78125 L 12.953125 -17.8125 L 11.375 -17.8125 L 11.375 -10.203125 C 11.375 -5.234375 11.394531 -2.628906 11.4375 -2.390625 C 11.507812 -2.097656 11.785156 -1.914062 12.265625 -1.84375 C 12.535156 -1.800781 12.75 -1.691406 12.90625 -1.515625 C 13.0625 -1.347656 13.140625 -1.179688 13.140625 -1.015625 C 13.140625 -0.648438 12.992188 -0.394531 12.703125 -0.25 C 12.554688 -0.132812 11.375 -0.0976562 9.15625 -0.140625 C 8.3125 -0.171875 7.644531 -0.1875 7.15625 -0.1875 C 6.675781 -0.1875 6.351562 -0.1875 6.1875 -0.1875 C 5.894531 -0.1875 5.691406 -0.222656 5.578125 -0.296875 C 5.285156 -0.503906 5.175781 -0.78125 5.25 -1.125 C 5.300781 -1.507812 5.59375 -1.75 6.125 -1.84375 C 6.582031 -1.9375 6.859375 -2.109375 6.953125 -2.359375 C 7.023438 -2.472656 7.0625 -5.066406 7.0625 -10.140625 L 7.0625 -17.8125 L 5.5 -17.8125 C 4.65625 -17.757812 4.125 -17.722656 3.90625 -17.703125 C 3.71875 -17.679688 3.488281 -17.535156 3.21875 -17.265625 C 2.90625 -17.023438 2.507812 -16.445312 2.03125 -15.53125 C 1.863281 -15.144531 1.597656 -14.953125 1.234375 -14.953125 C 0.867188 -14.953125 0.625 -15.0625 0.5 -15.28125 C 0.476562 -15.394531 0.441406 -15.972656 0.390625 -17.015625 C 0.367188 -17.546875 0.363281 -17.960938 0.375 -18.265625 C 0.382812 -18.566406 0.40625 -18.765625 0.4375 -18.859375 C 0.507812 -19.148438 0.675781 -19.367188 0.9375 -19.515625 Z M 0.9375 -19.515625 "/></g></g></g><g fill="#000000" fill-opacity="1"><g transform="translate(247.974339, 210.5063)"><g><path d="M 1.625 -19.4375 C 1.75 -19.53125 2.921875 -19.578125 5.140625 -19.578125 C 7.359375 -19.578125 8.53125 -19.53125 8.65625 -19.4375 C 8.894531 -19.34375 9.050781 -19.179688 9.125 -18.953125 C 9.195312 -18.722656 9.1875 -18.5 9.09375 -18.28125 C 8.914062 -17.988281 8.597656 -17.796875 8.140625 -17.703125 C 7.710938 -17.578125 7.445312 -17.394531 7.34375 -17.15625 C 7.269531 -17.007812 7.234375 -14.5625 7.234375 -9.8125 C 7.234375 -5.050781 7.269531 -2.601562 7.34375 -2.46875 C 7.46875 -2.195312 7.757812 -1.988281 8.21875 -1.84375 C 8.65625 -1.726562 8.945312 -1.535156 9.09375 -1.265625 C 9.1875 -1.046875 9.191406 -0.832031 9.109375 -0.625 C 9.023438 -0.425781 8.875 -0.28125 8.65625 -0.1875 C 8.53125 -0.0820312 7.394531 -0.03125 5.25 -0.03125 C 3.070312 -0.03125 1.890625 -0.0664062 1.703125 -0.140625 C 1.484375 -0.242188 1.328125 -0.410156 1.234375 -0.640625 C 1.140625 -0.867188 1.148438 -1.101562 1.265625 -1.34375 C 1.390625 -1.632812 1.679688 -1.828125 2.140625 -1.921875 C 2.523438 -2.066406 2.773438 -2.234375 2.890625 -2.421875 C 2.960938 -2.566406 3 -5.039062 3 -9.84375 L 3 -10.640625 C 3 -12.328125 3 -13.660156 3 -14.640625 C 3 -15.617188 2.988281 -16.253906 2.96875 -16.546875 C 2.914062 -17.117188 2.804688 -17.457031 2.640625 -17.5625 C 2.617188 -17.632812 2.414062 -17.707031 2.03125 -17.78125 C 1.46875 -17.875 1.164062 -18.148438 1.125 -18.609375 C 1.101562 -18.992188 1.269531 -19.269531 1.625 -19.4375 Z M 1.625 -19.4375 "/></g></g></g><g fill="#000000" fill-opacity="1"><g transform="translate(265.120405, 210.5063)"><g><path d="M 10.578125 -17.8125 C 9.335938 -17.8125 8.332031 -17.410156 7.5625 -16.609375 C 6.789062 -15.816406 6.238281 -14.863281 5.90625 -13.75 C 5.632812 -12.832031 5.472656 -11.773438 5.421875 -10.578125 C 5.378906 -9.390625 5.453125 -8.273438 5.640625 -7.234375 C 5.960938 -5.503906 6.570312 -4.15625 7.46875 -3.1875 C 8.375 -2.21875 9.445312 -1.734375 10.6875 -1.734375 C 11.644531 -1.734375 12.445312 -1.976562 13.09375 -2.46875 C 13.75 -2.96875 14.273438 -3.597656 14.671875 -4.359375 C 15.078125 -5.117188 15.367188 -5.945312 15.546875 -6.84375 C 15.734375 -7.738281 15.835938 -8.570312 15.859375 -9.34375 C 15.898438 -10.59375 15.820312 -11.707031 15.625 -12.6875 C 15.4375 -13.664062 15.148438 -14.503906 14.765625 -15.203125 C 14.304688 -16.003906 13.722656 -16.640625 13.015625 -17.109375 C 12.304688 -17.578125 11.492188 -17.8125 10.578125 -17.8125 Z M 10.5 -19.796875 C 12.09375 -19.796875 13.539062 -19.519531 14.84375 -18.96875 C 16.144531 -18.414062 17.300781 -17.488281 18.3125 -16.1875 C 18.582031 -15.914062 18.863281 -15.476562 19.15625 -14.875 C 19.300781 -14.5625 19.421875 -14.269531 19.515625 -14 C 19.609375 -13.738281 19.691406 -13.515625 19.765625 -13.328125 C 20.203125 -11.953125 20.378906 -10.515625 20.296875 -9.015625 C 20.210938 -7.515625 19.84375 -6.113281 19.1875 -4.8125 C 17.8125 -2.0625 15.601562 -0.410156 12.5625 0.140625 C 12.363281 0.191406 12.085938 0.226562 11.734375 0.25 C 11.390625 0.28125 10.988281 0.296875 10.53125 0.296875 C 9.6875 0.296875 8.921875 0.226562 8.234375 0.09375 C 7.546875 -0.0390625 6.816406 -0.273438 6.046875 -0.609375 C 4.578125 -1.359375 3.410156 -2.4375 2.546875 -3.84375 C 1.691406 -5.257812 1.171875 -6.921875 0.984375 -8.828125 C 0.910156 -9.671875 0.929688 -10.507812 1.046875 -11.34375 C 1.171875 -12.175781 1.390625 -12.976562 1.703125 -13.75 C 2.015625 -14.53125 2.40625 -15.253906 2.875 -15.921875 C 3.34375 -16.597656 3.878906 -17.191406 4.484375 -17.703125 C 5.328125 -18.398438 6.269531 -18.921875 7.3125 -19.265625 C 8.351562 -19.617188 9.414062 -19.796875 10.5 -19.796875 Z M 10.5 -19.796875 "/></g></g></g><g fill="#000000" fill-opacity="1"><g transform="translate(293.542122, 210.5063)"><g><path d="M 2.890625 -16.875 L 2.71875 -17.15625 C 2.644531 -17.320312 2.554688 -17.4375 2.453125 -17.5 C 2.359375 -17.5625 2.117188 -17.675781 1.734375 -17.84375 C 1.328125 -18.039062 1.144531 -18.34375 1.1875 -18.75 C 1.238281 -19.09375 1.410156 -19.335938 1.703125 -19.484375 C 1.773438 -19.523438 2.117188 -19.546875 2.734375 -19.546875 C 3.347656 -19.546875 3.992188 -19.546875 4.671875 -19.546875 C 4.910156 -19.566406 5.222656 -19.566406 5.609375 -19.546875 C 6.378906 -19.546875 6.847656 -19.507812 7.015625 -19.4375 C 7.410156 -19.21875 7.835938 -18.675781 8.296875 -17.8125 C 8.503906 -17.375 8.898438 -16.613281 9.484375 -15.53125 C 9.753906 -15.019531 9.972656 -14.613281 10.140625 -14.3125 C 10.304688 -14.007812 10.414062 -13.8125 10.46875 -13.71875 C 10.488281 -13.675781 10.585938 -13.488281 10.765625 -13.15625 C 10.953125 -12.832031 11.082031 -12.570312 11.15625 -12.375 C 11.488281 -11.769531 12.140625 -10.578125 13.109375 -8.796875 C 14.117188 -6.984375 14.695312 -5.929688 14.84375 -5.640625 L 15.0625 -5.21875 L 15.0625 -11.078125 C 15.082031 -13.035156 15.085938 -14.515625 15.078125 -15.515625 C 15.066406 -16.515625 15.050781 -17.0625 15.03125 -17.15625 C 14.957031 -17.5 14.726562 -17.679688 14.34375 -17.703125 C 13.632812 -17.847656 13.296875 -18.1875 13.328125 -18.71875 C 13.367188 -19.050781 13.523438 -19.289062 13.796875 -19.4375 C 13.910156 -19.53125 14.835938 -19.578125 16.578125 -19.578125 C 17.273438 -19.609375 17.84375 -19.613281 18.28125 -19.59375 C 18.71875 -19.582031 18.992188 -19.566406 19.109375 -19.546875 C 19.359375 -19.523438 19.566406 -19.40625 19.734375 -19.1875 C 19.921875 -18.925781 19.953125 -18.660156 19.828125 -18.390625 C 19.710938 -18.128906 19.488281 -17.9375 19.15625 -17.8125 C 18.570312 -17.644531 18.242188 -17.5 18.171875 -17.375 C 18.097656 -17.300781 18.039062 -14.660156 18 -9.453125 L 17.953125 -2.578125 C 18.054688 -2.304688 18.3125 -2.109375 18.71875 -1.984375 C 19.34375 -1.847656 19.65625 -1.515625 19.65625 -0.984375 C 19.65625 -0.734375 19.578125 -0.535156 19.421875 -0.390625 C 19.265625 -0.253906 19.113281 -0.160156 18.96875 -0.109375 C 18.945312 -0.109375 18.820312 -0.101562 18.59375 -0.09375 C 18.363281 -0.0820312 18.070312 -0.078125 17.71875 -0.078125 C 17.375 -0.078125 16.988281 -0.078125 16.5625 -0.078125 C 16.132812 -0.078125 15.707031 -0.078125 15.28125 -0.078125 C 14.894531 -0.078125 14.570312 -0.0976562 14.3125 -0.140625 C 14.0625 -0.191406 13.84375 -0.273438 13.65625 -0.390625 C 13.476562 -0.515625 13.316406 -0.695312 13.171875 -0.9375 C 13.023438 -1.175781 12.859375 -1.476562 12.671875 -1.84375 C 12.503906 -2.15625 12.359375 -2.421875 12.234375 -2.640625 C 12.117188 -2.859375 12.035156 -3.03125 11.984375 -3.15625 C 11.960938 -3.15625 11.890625 -3.257812 11.765625 -3.46875 C 11.640625 -3.6875 11.488281 -3.960938 11.3125 -4.296875 C 11.132812 -4.640625 10.9375 -5.015625 10.71875 -5.421875 C 10.5 -5.835938 10.289062 -6.226562 10.09375 -6.59375 C 9.320312 -8.039062 8.632812 -9.316406 8.03125 -10.421875 C 7.425781 -11.535156 6.921875 -12.476562 6.515625 -13.25 L 5.828125 -14.546875 L 5.828125 -7.96875 C 5.804688 -5.1875 5.804688 -3.554688 5.828125 -3.078125 C 5.878906 -2.566406 5.976562 -2.265625 6.125 -2.171875 L 6.15625 -2.171875 C 6.207031 -2.148438 6.257812 -2.125 6.3125 -2.09375 C 6.375 -2.070312 6.46875 -2.050781 6.59375 -2.03125 C 7 -1.925781 7.285156 -1.78125 7.453125 -1.59375 C 7.554688 -1.425781 7.609375 -1.234375 7.609375 -1.015625 C 7.609375 -0.703125 7.460938 -0.4375 7.171875 -0.21875 C 7.117188 -0.195312 7.050781 -0.171875 6.96875 -0.140625 C 6.882812 -0.117188 6.78125 -0.109375 6.65625 -0.109375 C 6.539062 -0.0859375 6.296875 -0.078125 5.921875 -0.078125 C 5.546875 -0.078125 5.046875 -0.078125 4.421875 -0.078125 C 2.679688 -0.046875 1.738281 -0.0820312 1.59375 -0.1875 C 1.28125 -0.320312 1.113281 -0.570312 1.09375 -0.9375 C 1.09375 -1.300781 1.191406 -1.554688 1.390625 -1.703125 C 1.597656 -1.847656 1.867188 -1.96875 2.203125 -2.0625 C 2.421875 -2.132812 2.578125 -2.234375 2.671875 -2.359375 C 2.796875 -2.472656 2.859375 -2.859375 2.859375 -3.515625 C 2.859375 -3.847656 2.859375 -4.582031 2.859375 -5.71875 C 2.859375 -6.851562 2.867188 -8.410156 2.890625 -10.390625 Z M 2.890625 -16.875 "/></g></g></g><g fill="#000000" fill-opacity="1"><g transform="translate(321.555795, 210.5063)"><g><path d="M 12.78125 -19.796875 C 13.09375 -19.921875 13.382812 -19.9375 13.65625 -19.84375 C 13.769531 -19.769531 13.898438 -19.660156 14.046875 -19.515625 C 14.191406 -19.367188 14.273438 -19.234375 14.296875 -19.109375 C 14.328125 -19.066406 14.34375 -18.820312 14.34375 -18.375 C 14.34375 -17.925781 14.34375 -17.304688 14.34375 -16.515625 C 14.34375 -14.816406 14.328125 -13.921875 14.296875 -13.828125 C 14.179688 -13.535156 13.976562 -13.304688 13.6875 -13.140625 C 13.375 -12.992188 13.046875 -13.019531 12.703125 -13.21875 C 12.515625 -13.3125 12.320312 -13.578125 12.125 -14.015625 C 11.757812 -15.023438 11.160156 -15.875 10.328125 -16.5625 C 9.503906 -17.25 8.546875 -17.59375 7.453125 -17.59375 C 7.023438 -17.59375 6.550781 -17.535156 6.03125 -17.421875 C 5.507812 -17.316406 5.113281 -17.070312 4.84375 -16.6875 C 4.4375 -16.132812 4.367188 -15.53125 4.640625 -14.875 C 4.878906 -14.375 5.378906 -13.820312 6.140625 -13.21875 C 6.898438 -12.613281 8.085938 -11.816406 9.703125 -10.828125 C 12.578125 -9.035156 14.207031 -7.359375 14.59375 -5.796875 C 14.632812 -5.523438 14.660156 -5.238281 14.671875 -4.9375 C 14.691406 -4.632812 14.675781 -4.289062 14.625 -3.90625 C 14.3125 -1.851562 12.816406 -0.585938 10.140625 -0.109375 C 9.847656 -0.0351562 9.28125 0 8.4375 0 C 7.351562 0 6.109375 -0.164062 4.703125 -0.5 C 4.128906 -0.675781 3.734375 -0.765625 3.515625 -0.765625 C 3.148438 -0.765625 2.867188 -0.582031 2.671875 -0.21875 L 2.578125 0.03125 L 2.03125 0.03125 C 1.5 0.03125 1.148438 -0.125 0.984375 -0.4375 C 0.878906 -0.582031 0.828125 -0.738281 0.828125 -0.90625 C 0.804688 -1.03125 0.796875 -1.269531 0.796875 -1.625 C 0.796875 -1.988281 0.796875 -2.460938 0.796875 -3.046875 C 0.816406 -3.617188 0.828125 -4.078125 0.828125 -4.421875 C 0.828125 -4.773438 0.828125 -5.015625 0.828125 -5.140625 C 0.828125 -5.378906 0.878906 -5.5625 0.984375 -5.6875 C 1.148438 -6 1.4375 -6.15625 1.84375 -6.15625 C 2.082031 -6.15625 2.265625 -6.097656 2.390625 -5.984375 C 2.515625 -5.878906 2.671875 -5.632812 2.859375 -5.25 C 3.335938 -4.207031 3.992188 -3.492188 4.828125 -3.109375 C 5.660156 -2.722656 6.609375 -2.53125 7.671875 -2.53125 C 8.160156 -2.53125 8.570312 -2.597656 8.90625 -2.734375 C 9.238281 -2.867188 9.578125 -3.101562 9.921875 -3.4375 C 10.160156 -3.707031 10.316406 -3.9375 10.390625 -4.125 C 10.460938 -4.320312 10.5 -4.613281 10.5 -5 C 10.5 -5.625 10.316406 -6.128906 9.953125 -6.515625 C 9.585938 -6.898438 9.164062 -7.265625 8.6875 -7.609375 C 8.5 -7.722656 8.203125 -7.894531 7.796875 -8.125 C 7.398438 -8.351562 6.898438 -8.640625 6.296875 -8.984375 C 5.722656 -9.296875 5.117188 -9.640625 4.484375 -10.015625 C 3.859375 -10.390625 3.285156 -10.804688 2.765625 -11.265625 C 2.242188 -11.722656 1.804688 -12.238281 1.453125 -12.8125 C 1.109375 -13.394531 0.925781 -14.0625 0.90625 -14.8125 C 0.832031 -15.988281 1.179688 -16.960938 1.953125 -17.734375 C 3.179688 -18.992188 5.003906 -19.625 7.421875 -19.625 C 8.671875 -19.625 9.878906 -19.476562 11.046875 -19.1875 C 11.378906 -19.113281 11.628906 -19.078125 11.796875 -19.078125 C 12.015625 -19.078125 12.140625 -19.113281 12.171875 -19.1875 C 12.210938 -19.238281 12.25 -19.285156 12.28125 -19.328125 C 12.320312 -19.378906 12.367188 -19.441406 12.421875 -19.515625 C 12.585938 -19.679688 12.707031 -19.773438 12.78125 -19.796875 Z M 12.78125 -19.796875 "/></g></g></g></svg>